<?xml version="1.0" standalone="no"?>
 <!DOCTYPE svg PUBLIC "-//W3C//DTD SVG 1.1//EN" 
 "http://www.w3.org/Graphics/SVG/1.1/DTD/svg11.dtd"> 
<svg
  xmlns:svg="http://www.w3.org/2000/svg"
  xmlns="http://www.w3.org/2000/svg"
  xmlns:xlink="http://www.w3.org/1999/xlink"
  version="1.1"
  width="138.8872mm" height="89.9922mm" viewBox="0.0000 0.0000 138.8872 89.9922">
<title>SVG Image created as keyboard_pcb-Edge_Cuts.svg date 2023/09/23 16:06:58 </title>
  <desc>Image generated by PCBNEW </desc>
<g style="fill:#000000; fill-opacity:1.0000;stroke:#000000; stroke-opacity:1.0000;
stroke-linecap:round; stroke-linejoin:round;"
 transform="translate(0 0) scale(1 1)">
</g>
<g style="fill:#000000; fill-opacity:0.0; 
stroke:#000000; stroke-width:0.0000; stroke-opacity:1; 
stroke-linecap:round; stroke-linejoin:round;">
</g>
<g style="fill:#000000; fill-opacity:0.0; 
stroke:#000000; stroke-width:0.1000; stroke-opacity:1; 
stroke-linecap:round; stroke-linejoin:round;">
<path d="M121.2500 61.9500
L121.2500 54.5500
" />
<path d="M1.8500 7.0500 A1.8000 1.8000 0.0 0 0 0.0500 8.8500" />
<path d="M119.2500 17.0500
L104.8500 17.0500
" />
<path d="M102.8500 7.0500 A2.0000 2.0000 0.0 0 0 100.8500 5.0500" />
<path d="M96.3500 70.2500
L119.2500 70.2500
" />
<path d="M0.4160 72.1379
L12.9000 89.1000
" />
<path d="M68.3500 79.8250 A9.6505 9.6505 0.0 0 0 75.1000 77.7750" />
<path d="M84.8500 2.0500 A2.0000 2.0000 0.0 0 0 82.8500 0.0500" />
<path d="M124.0500 17.0500 A2.0000 2.0000 0.0 0 0 122.0500 19.0500" />
<path d="M45.1000 7.0500
L1.8500 7.0500
" />
<path d="M84.8500 3.0500
L84.8500 2.0500
" />
<path d="M121.2500 19.0500 A0.4000 0.4000 0.0 0 0 122.0500 19.0500" />
<path d="M64.8500 2.0500
L64.8500 3.0500
" />
<path d="M121.2500 32.7500
L121.2500 25.3500
" />
<path d="M121.2500 49.7500 A0.4000 0.4000 0.0 0 0 122.0500 49.7500" />
<path d="M122.0500 68.2500 A0.4000 0.4000 0.0 0 0 121.2500 68.2500" />
<path d="M121.2500 32.7500 A0.4000 0.4000 0.0 0 0 122.0500 32.7500" />
<path d="M122.0500 68.2500 A2.0000 2.0000 0.0 0 0 124.0500 70.2500" />
<path d="M122.0500 61.9500
L122.0500 54.5500
" />
<path d="M0.0500 71.0500 A1.8000 1.8000 0.0 0 0 0.4160 72.1379" />
<path d="M102.8500 15.0500
L102.8500 7.0500
" />
<path d="M122.0500 25.3500 A0.4000 0.4000 0.0 0 0 121.2500 25.3500" />
<path d="M136.8500 17.0500
L124.0500 17.0500
" />
<path d="M124.0500 70.2500
L136.8500 70.2500
" />
<path d="M66.8500 0.0500 A2.0000 2.0000 0.0 0 0 64.8500 2.0500" />
<path d="M84.8500 3.0500 A2.0000 2.0000 0.0 0 0 86.8500 5.0500" />
<path d="M136.8500 70.2500 A2.0000 2.0000 0.0 0 0 138.8500 68.2500" />
<path d="M0.0500 69.8500
L0.0500 71.0500
" />
<path d="M68.3500 79.8250
L61.0500 79.2500
" />
<path d="M15.3361 89.7714
L22.7206 86.4500
" />
<path d="M119.2500 70.2500 A2.0000 2.0000 0.0 0 0 121.2500 68.2500" />
<path d="M62.8500 5.0500 A2.0000 2.0000 0.0 0 0 64.8500 3.0500" />
<path d="M122.0500 32.7500
L122.0500 25.3500
" />
<path d="M45.1000 7.0500 A2.0311 2.0311 0.0 0 0 46.8500 6.0500" />
<path d="M138.8500 68.2500
L138.8500 19.0500
" />
<path d="M122.0500 54.5500 A0.4000 0.4000 0.0 0 0 121.2500 54.5500" />
<path d="M122.0500 49.7500
L122.0500 37.5500
" />
<path d="M122.0500 37.5500 A0.4000 0.4000 0.0 0 0 121.2500 37.5500" />
<path d="M82.8500 0.0500
L66.8500 0.0500
" />
<path d="M138.8500 19.0500 A2.0000 2.0000 0.0 0 0 136.8500 17.0500" />
<path d="M96.3500 70.2500 A34.5380 34.5380 0.0 0 0 75.1000 77.7750" />
<path d="M100.8500 5.0500
L86.8500 5.0500
" />
<path d="M48.5500 5.0500 A1.9450 1.9450 0.0 0 0 46.8500 6.0500" />
<path d="M121.2500 49.7500
L121.2500 37.5500
" />
<path d="M0.0500 8.8500
L0.0500 69.8500
" />
<path d="M121.2500 61.9500 A0.4000 0.4000 0.0 0 0 122.0500 61.9500" />
<path d="M102.8500 15.0500 A2.0000 2.0000 0.0 0 0 104.8500 17.0500" />
<path d="M121.2500 19.0500 A2.0000 2.0000 0.0 0 0 119.2500 17.0500" />
<path d="M12.9000 89.1000 A1.9138 1.9138 0.0 0 0 15.3361 89.7714" />
<path d="M62.8500 5.0500
L48.5500 5.0500
" />
<path d="M61.0500 79.2500 A72.2355 72.2355 0.0 0 0 22.7206 86.4500" />
<g >
</g>
<g >
</g>
<g >
</g>
<g >
</g>
<g >
</g>
<g >
</g>
<g >
</g>
<g >
</g>
<g >
</g>
<g >
</g>
<g >
</g>
<g >
</g>
<g >
</g>
<g >
</g>
<g >
</g>
<g >
</g>
<g >
</g>
<g >
</g>
<g >
</g>
<g >
</g>
<g >
</g>
<g >
</g>
<g >
</g>
<g >
</g>
<g >
</g>
<g >
</g>
<g >
</g>
<g >
</g>
<g >
</g>
<g >
</g>
<g >
</g>
<g >
</g>
<g >
</g>
<g >
</g>
<g >
</g>
<g >
</g>
<g >
</g>
<g >
</g>
<g >
</g>
</g> 
</svg>
