<?xml version="1.0" standalone="no"?>
 <!DOCTYPE svg PUBLIC "-//W3C//DTD SVG 1.1//EN" 
 "http://www.w3.org/Graphics/SVG/1.1/DTD/svg11.dtd"> 
<svg
  xmlns:svg="http://www.w3.org/2000/svg"
  xmlns="http://www.w3.org/2000/svg"
  xmlns:xlink="http://www.w3.org/1999/xlink"
  version="1.1"
  width="138.8872mm" height="89.9922mm" viewBox="0.0000 0.0000 138.8872 89.9922">
<title>SVG Image created as keyboard_pcb-User_Eco2.svg date 2023/09/23 16:06:58 </title>
  <desc>Image generated by PCBNEW </desc>
<g style="fill:#000000; fill-opacity:1.0000;stroke:#000000; stroke-opacity:1.0000;
stroke-linecap:round; stroke-linejoin:round;"
 transform="translate(0 0) scale(1 1)">
</g>
<g style="fill:#000000; fill-opacity:0.0; 
stroke:#000000; stroke-width:0.0000; stroke-opacity:1; 
stroke-linecap:round; stroke-linejoin:round;">
</g>
<g style="fill:#000000; fill-opacity:0.0; 
stroke:#000000; stroke-width:0.1500; stroke-opacity:1; 
stroke-linecap:round; stroke-linejoin:round;">
<path d="M36.2500 47.5500
L41.4500 47.5500
" />
<path d="M36.2500 47.5500
L36.2500 44.3500
" />
<path d="M45.7500 43.7500
L45.7500 57.5500
" />
<path d="M41.4500 47.5500
L41.4500 44.3500
" />
<path d="M41.4500 44.3500
L36.2500 44.3500
" />
<path d="M45.7500 43.7500
L31.9500 43.7500
" />
<path d="M31.9500 57.5500
L31.9500 43.7500
" />
<path d="M31.9500 57.5500
L45.7500 57.5500
" />
<path d="M59.4500 45.5500
L59.4500 42.3500
" />
<path d="M63.7500 41.7500
L63.7500 55.5500
" />
<path d="M54.2500 45.5500
L54.2500 42.3500
" />
<path d="M63.7500 41.7500
L49.9500 41.7500
" />
<path d="M59.4500 42.3500
L54.2500 42.3500
" />
<path d="M49.9500 55.5500
L63.7500 55.5500
" />
<path d="M54.2500 45.5500
L59.4500 45.5500
" />
<path d="M49.9500 55.5500
L49.9500 41.7500
" />
<path d="M113.4500 57.5500
L113.4500 54.3500
" />
<path d="M108.2500 57.5500
L108.2500 54.3500
" />
<path d="M117.7500 53.7500
L103.9500 53.7500
" />
<path d="M113.4500 54.3500
L108.2500 54.3500
" />
<path d="M117.7500 53.7500
L117.7500 67.5500
" />
<path d="M103.9500 67.5500
L103.9500 53.7500
" />
<path d="M103.9500 67.5500
L117.7500 67.5500
" />
<path d="M108.2500 57.5500
L113.4500 57.5500
" />
<path d="M85.9500 21.5500
L99.7500 21.5500
" />
<path d="M99.7500 7.7500
L99.7500 21.5500
" />
<path d="M95.4500 11.5500
L95.4500 8.3500
" />
<path d="M95.4500 8.3500
L90.2500 8.3500
" />
<path d="M90.2500 11.5500
L90.2500 8.3500
" />
<path d="M85.9500 21.5500
L85.9500 7.7500
" />
<path d="M90.2500 11.5500
L95.4500 11.5500
" />
<path d="M99.7500 7.7500
L85.9500 7.7500
" />
<path d="M135.7500 36.7500
L121.9500 36.7500
" />
<path d="M131.4500 40.5500
L131.4500 37.3500
" />
<path d="M135.7500 36.7500
L135.7500 50.5500
" />
<path d="M131.4500 37.3500
L126.2500 37.3500
" />
<path d="M126.2500 40.5500
L131.4500 40.5500
" />
<path d="M121.9500 50.5500
L135.7500 50.5500
" />
<path d="M121.9500 50.5500
L121.9500 36.7500
" />
<path d="M126.2500 40.5500
L126.2500 37.3500
" />
<path d="M49.9500 21.5500
L49.9500 7.7500
" />
<path d="M63.7500 7.7500
L49.9500 7.7500
" />
<path d="M49.9500 21.5500
L63.7500 21.5500
" />
<path d="M54.2500 11.5500
L54.2500 8.3500
" />
<path d="M54.2500 11.5500
L59.4500 11.5500
" />
<path d="M59.4500 8.3500
L54.2500 8.3500
" />
<path d="M59.4500 11.5500
L59.4500 8.3500
" />
<path d="M63.7500 7.7500
L63.7500 21.5500
" />
<path d="M95.4500 25.3500
L90.2500 25.3500
" />
<path d="M99.7500 24.7500
L85.9500 24.7500
" />
<path d="M90.2500 28.5500
L95.4500 28.5500
" />
<path d="M90.2500 28.5500
L90.2500 25.3500
" />
<path d="M85.9500 38.5500
L99.7500 38.5500
" />
<path d="M85.9500 38.5500
L85.9500 24.7500
" />
<path d="M95.4500 28.5500
L95.4500 25.3500
" />
<path d="M99.7500 24.7500
L99.7500 38.5500
" />
<path d="M59.5301 66.3352
L59.8090 63.1474
" />
<path d="M59.5301 66.3352
L64.7103 66.7884
" />
<path d="M69.3251 63.3776
L68.1224 77.1251
" />
<path d="M54.3749 75.9224
L68.1224 77.1251
" />
<path d="M69.3251 63.3776
L55.5776 62.1749
" />
<path d="M54.3749 75.9224
L55.5776 62.1749
" />
<path d="M64.9892 63.6006
L59.8090 63.1474
" />
<path d="M64.7103 66.7884
L64.9892 63.6006
" />
<path d="M117.7500 19.7500
L117.7500 33.5500
" />
<path d="M108.2500 23.5500
L108.2500 20.3500
" />
<path d="M113.4500 23.5500
L113.4500 20.3500
" />
<path d="M103.9500 33.5500
L103.9500 19.7500
" />
<path d="M108.2500 23.5500
L113.4500 23.5500
" />
<path d="M103.9500 33.5500
L117.7500 33.5500
" />
<path d="M117.7500 19.7500
L103.9500 19.7500
" />
<path d="M113.4500 20.3500
L108.2500 20.3500
" />
<path d="M59.4500 28.5500
L59.4500 25.3500
" />
<path d="M63.7500 24.7500
L49.9500 24.7500
" />
<path d="M63.7500 24.7500
L63.7500 38.5500
" />
<path d="M49.9500 38.5500
L63.7500 38.5500
" />
<path d="M54.2500 28.5500
L59.4500 28.5500
" />
<path d="M54.2500 28.5500
L54.2500 25.3500
" />
<path d="M59.4500 25.3500
L54.2500 25.3500
" />
<path d="M49.9500 38.5500
L49.9500 24.7500
" />
<path d="M67.9500 50.5500
L67.9500 36.7500
" />
<path d="M77.4500 40.5500
L77.4500 37.3500
" />
<path d="M77.4500 37.3500
L72.2500 37.3500
" />
<path d="M72.2500 40.5500
L72.2500 37.3500
" />
<path d="M81.7500 36.7500
L81.7500 50.5500
" />
<path d="M81.7500 36.7500
L67.9500 36.7500
" />
<path d="M72.2500 40.5500
L77.4500 40.5500
" />
<path d="M67.9500 50.5500
L81.7500 50.5500
" />
<path d="M81.7500 2.7500
L67.9500 2.7500
" />
<path d="M77.4500 6.5500
L77.4500 3.3500
" />
<path d="M67.9500 16.5500
L81.7500 16.5500
" />
<path d="M72.2500 6.5500
L77.4500 6.5500
" />
<path d="M77.4500 3.3500
L72.2500 3.3500
" />
<path d="M81.7500 2.7500
L81.7500 16.5500
" />
<path d="M72.2500 6.5500
L72.2500 3.3500
" />
<path d="M67.9500 16.5500
L67.9500 2.7500
" />
<path d="M95.4500 45.5500
L95.4500 42.3500
" />
<path d="M85.9500 55.5500
L99.7500 55.5500
" />
<path d="M90.2500 45.5500
L95.4500 45.5500
" />
<path d="M99.7500 41.7500
L99.7500 55.5500
" />
<path d="M85.9500 55.5500
L85.9500 41.7500
" />
<path d="M95.4500 42.3500
L90.2500 42.3500
" />
<path d="M90.2500 45.5500
L90.2500 42.3500
" />
<path d="M99.7500 41.7500
L85.9500 41.7500
" />
<path d="M36.2500 30.5500
L41.4500 30.5500
" />
<path d="M31.9500 40.5500
L45.7500 40.5500
" />
<path d="M36.2500 30.5500
L36.2500 27.3500
" />
<path d="M41.4500 30.5500
L41.4500 27.3500
" />
<path d="M31.9500 40.5500
L31.9500 26.7500
" />
<path d="M45.7500 26.7500
L31.9500 26.7500
" />
<path d="M41.4500 27.3500
L36.2500 27.3500
" />
<path d="M45.7500 26.7500
L45.7500 40.5500
" />
<path d="M15.5125 86.8196
L9.6804 74.3125
" />
<path d="M15.5125 86.8196
L28.0196 80.9875
" />
<path d="M18.5439 70.8415
L13.8311 73.0391
" />
<path d="M19.8963 73.7416
L18.5439 70.8415
" />
<path d="M15.1835 75.9393
L13.8311 73.0391
" />
<path d="M15.1835 75.9393
L19.8963 73.7416
" />
<path d="M22.1875 68.4804
L9.6804 74.3125
" />
<path d="M22.1875 68.4804
L28.0196 80.9875
" />
<path d="M103.9500 50.5500
L103.9500 36.7500
" />
<path d="M108.2500 40.5500
L108.2500 37.3500
" />
<path d="M117.7500 36.7500
L103.9500 36.7500
" />
<path d="M113.4500 40.5500
L113.4500 37.3500
" />
<path d="M117.7500 36.7500
L117.7500 50.5500
" />
<path d="M108.2500 40.5500
L113.4500 40.5500
" />
<path d="M113.4500 37.3500
L108.2500 37.3500
" />
<path d="M103.9500 50.5500
L117.7500 50.5500
" />
<path d="M45.7500 9.7500
L45.7500 23.5500
" />
<path d="M41.4500 10.3500
L36.2500 10.3500
" />
<path d="M36.2500 13.5500
L36.2500 10.3500
" />
<path d="M31.9500 23.5500
L31.9500 9.7500
" />
<path d="M41.4500 13.5500
L41.4500 10.3500
" />
<path d="M31.9500 23.5500
L45.7500 23.5500
" />
<path d="M45.7500 9.7500
L31.9500 9.7500
" />
<path d="M36.2500 13.5500
L41.4500 13.5500
" />
<path d="M135.7500 53.7500
L121.9500 53.7500
" />
<path d="M126.2500 57.5500
L131.4500 57.5500
" />
<path d="M131.4500 54.3500
L126.2500 54.3500
" />
<path d="M121.9500 67.5500
L121.9500 53.7500
" />
<path d="M131.4500 57.5500
L131.4500 54.3500
" />
<path d="M121.9500 67.5500
L135.7500 67.5500
" />
<path d="M135.7500 53.7500
L135.7500 67.5500
" />
<path d="M126.2500 57.5500
L126.2500 54.3500
" />
<path d="M72.2500 23.5500
L72.2500 20.3500
" />
<path d="M81.7500 19.7500
L81.7500 33.5500
" />
<path d="M81.7500 19.7500
L67.9500 19.7500
" />
<path d="M67.9500 33.5500
L81.7500 33.5500
" />
<path d="M72.2500 23.5500
L77.4500 23.5500
" />
<path d="M67.9500 33.5500
L67.9500 19.7500
" />
<path d="M77.4500 23.5500
L77.4500 20.3500
" />
<path d="M77.4500 20.3500
L72.2500 20.3500
" />
<path d="M131.4500 20.3500
L126.2500 20.3500
" />
<path d="M121.9500 33.5500
L121.9500 19.7500
" />
<path d="M135.7500 19.7500
L135.7500 33.5500
" />
<path d="M135.7500 19.7500
L121.9500 19.7500
" />
<path d="M126.2500 23.5500
L131.4500 23.5500
" />
<path d="M121.9500 33.5500
L135.7500 33.5500
" />
<path d="M131.4500 23.5500
L131.4500 20.3500
" />
<path d="M126.2500 23.5500
L126.2500 20.3500
" />
<path d="M34.2530 78.6433
L47.8433 76.2470
" />
<path d="M41.3165 63.9942
L36.1955 64.8972
" />
<path d="M45.4470 62.6567
L31.8567 65.0530
" />
<path d="M36.7512 68.0486
L36.1955 64.8972
" />
<path d="M36.7512 68.0486
L41.8722 67.1456
" />
<path d="M41.8722 67.1456
L41.3165 63.9942
" />
<path d="M34.2530 78.6433
L31.8567 65.0530
" />
<path d="M45.4470 62.6567
L47.8433 76.2470
" />
<g >
</g>
<g >
</g>
<g >
</g>
<g >
</g>
<g >
</g>
<g >
</g>
<g >
</g>
<g >
</g>
<g >
</g>
<g >
</g>
<g >
</g>
<g >
</g>
<g >
</g>
<g >
</g>
<g >
</g>
<g >
</g>
<g >
</g>
<g >
</g>
<g >
</g>
<g >
</g>
<g >
</g>
<g >
</g>
<g >
</g>
<g >
</g>
<g >
</g>
<g >
</g>
<g >
</g>
<g >
</g>
<g >
</g>
<g >
</g>
<g >
</g>
<g >
</g>
<g >
</g>
<g >
</g>
<g >
</g>
<g >
</g>
<g >
</g>
<g >
</g>
<g >
</g>
</g> 
</svg>
