<?xml version="1.0" standalone="no"?>
 <!DOCTYPE svg PUBLIC "-//W3C//DTD SVG 1.1//EN" 
 "http://www.w3.org/Graphics/SVG/1.1/DTD/svg11.dtd"> 
<svg
  xmlns:svg="http://www.w3.org/2000/svg"
  xmlns="http://www.w3.org/2000/svg"
  xmlns:xlink="http://www.w3.org/1999/xlink"
  version="1.1"
  width="138.8872mm" height="89.9922mm" viewBox="0.0000 0.0000 138.8872 89.9922">
<title>SVG Image created as keyboard_pcb-User_Comments.svg date 2023/09/23 16:06:58 </title>
  <desc>Image generated by PCBNEW </desc>
<g style="fill:#000000; fill-opacity:1.0000;stroke:#000000; stroke-opacity:1.0000;
stroke-linecap:round; stroke-linejoin:round;"
 transform="translate(0 0) scale(1 1)">
</g>
<g style="fill:#000000; fill-opacity:0.0; 
stroke:#000000; stroke-width:0.0000; stroke-opacity:1; 
stroke-linecap:round; stroke-linejoin:round;">
</g>
<g style="fill:#000000; fill-opacity:0.0; 
stroke:#000000; stroke-width:0.1500; stroke-opacity:1; 
stroke-linecap:round; stroke-linejoin:round;">
<text x="12.2468" y="3.6580"
textLength="29.8691" font-size="1.3333" lengthAdjust="spacingAndGlyphs"
text-anchor="middle" opacity="0">Copper Keepouts shown on Dwgs layer</text>
<g class="stroked-text"><desc>Copper Keepouts shown on Dwgs layer</desc>
<path d="M-1.7532 3.5176
L-1.8008 3.5652
" />
<path d="M-1.8008 3.5652
L-1.9437 3.6128
" />
<path d="M-1.9437 3.6128
L-2.0389 3.6128
" />
<path d="M-2.0389 3.6128
L-2.1818 3.5652
" />
<path d="M-2.1818 3.5652
L-2.2770 3.4700
" />
<path d="M-2.2770 3.4700
L-2.3246 3.3747
" />
<path d="M-2.3246 3.3747
L-2.3722 3.1842
" />
<path d="M-2.3722 3.1842
L-2.3722 3.0414
" />
<path d="M-2.3722 3.0414
L-2.3246 2.8509
" />
<path d="M-2.3246 2.8509
L-2.2770 2.7557
" />
<path d="M-2.2770 2.7557
L-2.1818 2.6604
" />
<path d="M-2.1818 2.6604
L-2.0389 2.6128
" />
<path d="M-2.0389 2.6128
L-1.9437 2.6128
" />
<path d="M-1.9437 2.6128
L-1.8008 2.6604
" />
<path d="M-1.8008 2.6604
L-1.7532 2.7081
" />
<path d="M-1.1818 3.6128
L-1.2770 3.5652
" />
<path d="M-1.2770 3.5652
L-1.3246 3.5176
" />
<path d="M-1.3246 3.5176
L-1.3722 3.4223
" />
<path d="M-1.3722 3.4223
L-1.3722 3.1366
" />
<path d="M-1.3722 3.1366
L-1.3246 3.0414
" />
<path d="M-1.3246 3.0414
L-1.2770 2.9938
" />
<path d="M-1.2770 2.9938
L-1.1818 2.9462
" />
<path d="M-1.1818 2.9462
L-1.0389 2.9462
" />
<path d="M-1.0389 2.9462
L-0.9437 2.9938
" />
<path d="M-0.9437 2.9938
L-0.8961 3.0414
" />
<path d="M-0.8961 3.0414
L-0.8484 3.1366
" />
<path d="M-0.8484 3.1366
L-0.8484 3.4223
" />
<path d="M-0.8484 3.4223
L-0.8961 3.5176
" />
<path d="M-0.8961 3.5176
L-0.9437 3.5652
" />
<path d="M-0.9437 3.5652
L-1.0389 3.6128
" />
<path d="M-1.0389 3.6128
L-1.1818 3.6128
" />
<path d="M-0.4199 2.9462
L-0.4199 3.9462
" />
<path d="M-0.4199 2.9938
L-0.3246 2.9462
" />
<path d="M-0.3246 2.9462
L-0.1342 2.9462
" />
<path d="M-0.1342 2.9462
L-0.0389 2.9938
" />
<path d="M-0.0389 2.9938
L0.0087 3.0414
" />
<path d="M0.0087 3.0414
L0.0563 3.1366
" />
<path d="M0.0563 3.1366
L0.0563 3.4223
" />
<path d="M0.0563 3.4223
L0.0087 3.5176
" />
<path d="M0.0087 3.5176
L-0.0389 3.5652
" />
<path d="M-0.0389 3.5652
L-0.1342 3.6128
" />
<path d="M-0.1342 3.6128
L-0.3246 3.6128
" />
<path d="M-0.3246 3.6128
L-0.4199 3.5652
" />
<path d="M0.4849 2.9462
L0.4849 3.9462
" />
<path d="M0.4849 2.9938
L0.5801 2.9462
" />
<path d="M0.5801 2.9462
L0.7706 2.9462
" />
<path d="M0.7706 2.9462
L0.8658 2.9938
" />
<path d="M0.8658 2.9938
L0.9135 3.0414
" />
<path d="M0.9135 3.0414
L0.9611 3.1366
" />
<path d="M0.9611 3.1366
L0.9611 3.4223
" />
<path d="M0.9611 3.4223
L0.9135 3.5176
" />
<path d="M0.9135 3.5176
L0.8658 3.5652
" />
<path d="M0.8658 3.5652
L0.7706 3.6128
" />
<path d="M0.7706 3.6128
L0.5801 3.6128
" />
<path d="M0.5801 3.6128
L0.4849 3.5652
" />
<path d="M1.7706 3.5652
L1.6754 3.6128
" />
<path d="M1.6754 3.6128
L1.4849 3.6128
" />
<path d="M1.4849 3.6128
L1.3897 3.5652
" />
<path d="M1.3897 3.5652
L1.3420 3.4700
" />
<path d="M1.3420 3.4700
L1.3420 3.0890
" />
<path d="M1.3420 3.0890
L1.3897 2.9938
" />
<path d="M1.3897 2.9938
L1.4849 2.9462
" />
<path d="M1.4849 2.9462
L1.6754 2.9462
" />
<path d="M1.6754 2.9462
L1.7706 2.9938
" />
<path d="M1.7706 2.9938
L1.8182 3.0890
" />
<path d="M1.8182 3.0890
L1.8182 3.1842
" />
<path d="M1.8182 3.1842
L1.3420 3.2795
" />
<path d="M2.2468 3.6128
L2.2468 2.9462
" />
<path d="M2.2468 3.1366
L2.2944 3.0414
" />
<path d="M2.2944 3.0414
L2.3420 2.9938
" />
<path d="M2.3420 2.9938
L2.4373 2.9462
" />
<path d="M2.4373 2.9462
L2.5325 2.9462
" />
<path d="M3.6278 3.6128
L3.6278 2.6128
" />
<path d="M4.1992 3.6128
L3.7706 3.0414
" />
<path d="M4.1992 2.6128
L3.6278 3.1842
" />
<path d="M5.0087 3.5652
L4.9135 3.6128
" />
<path d="M4.9135 3.6128
L4.7230 3.6128
" />
<path d="M4.7230 3.6128
L4.6278 3.5652
" />
<path d="M4.6278 3.5652
L4.5801 3.4700
" />
<path d="M4.5801 3.4700
L4.5801 3.0890
" />
<path d="M4.5801 3.0890
L4.6278 2.9938
" />
<path d="M4.6278 2.9938
L4.7230 2.9462
" />
<path d="M4.7230 2.9462
L4.9135 2.9462
" />
<path d="M4.9135 2.9462
L5.0087 2.9938
" />
<path d="M5.0087 2.9938
L5.0563 3.0890
" />
<path d="M5.0563 3.0890
L5.0563 3.1842
" />
<path d="M5.0563 3.1842
L4.5801 3.2795
" />
<path d="M5.8658 3.5652
L5.7706 3.6128
" />
<path d="M5.7706 3.6128
L5.5801 3.6128
" />
<path d="M5.5801 3.6128
L5.4849 3.5652
" />
<path d="M5.4849 3.5652
L5.4373 3.4700
" />
<path d="M5.4373 3.4700
L5.4373 3.0890
" />
<path d="M5.4373 3.0890
L5.4849 2.9938
" />
<path d="M5.4849 2.9938
L5.5801 2.9462
" />
<path d="M5.5801 2.9462
L5.7706 2.9462
" />
<path d="M5.7706 2.9462
L5.8658 2.9938
" />
<path d="M5.8658 2.9938
L5.9135 3.0890
" />
<path d="M5.9135 3.0890
L5.9135 3.1842
" />
<path d="M5.9135 3.1842
L5.4373 3.2795
" />
<path d="M6.3420 2.9462
L6.3420 3.9462
" />
<path d="M6.3420 2.9938
L6.4373 2.9462
" />
<path d="M6.4373 2.9462
L6.6278 2.9462
" />
<path d="M6.6278 2.9462
L6.7230 2.9938
" />
<path d="M6.7230 2.9938
L6.7706 3.0414
" />
<path d="M6.7706 3.0414
L6.8182 3.1366
" />
<path d="M6.8182 3.1366
L6.8182 3.4223
" />
<path d="M6.8182 3.4223
L6.7706 3.5176
" />
<path d="M6.7706 3.5176
L6.7230 3.5652
" />
<path d="M6.7230 3.5652
L6.6278 3.6128
" />
<path d="M6.6278 3.6128
L6.4373 3.6128
" />
<path d="M6.4373 3.6128
L6.3420 3.5652
" />
<path d="M7.3897 3.6128
L7.2944 3.5652
" />
<path d="M7.2944 3.5652
L7.2468 3.5176
" />
<path d="M7.2468 3.5176
L7.1992 3.4223
" />
<path d="M7.1992 3.4223
L7.1992 3.1366
" />
<path d="M7.1992 3.1366
L7.2468 3.0414
" />
<path d="M7.2468 3.0414
L7.2944 2.9938
" />
<path d="M7.2944 2.9938
L7.3897 2.9462
" />
<path d="M7.3897 2.9462
L7.5325 2.9462
" />
<path d="M7.5325 2.9462
L7.6278 2.9938
" />
<path d="M7.6278 2.9938
L7.6754 3.0414
" />
<path d="M7.6754 3.0414
L7.7230 3.1366
" />
<path d="M7.7230 3.1366
L7.7230 3.4223
" />
<path d="M7.7230 3.4223
L7.6754 3.5176
" />
<path d="M7.6754 3.5176
L7.6278 3.5652
" />
<path d="M7.6278 3.5652
L7.5325 3.6128
" />
<path d="M7.5325 3.6128
L7.3897 3.6128
" />
<path d="M8.5801 2.9462
L8.5801 3.6128
" />
<path d="M8.1516 2.9462
L8.1516 3.4700
" />
<path d="M8.1516 3.4700
L8.1992 3.5652
" />
<path d="M8.1992 3.5652
L8.2944 3.6128
" />
<path d="M8.2944 3.6128
L8.4373 3.6128
" />
<path d="M8.4373 3.6128
L8.5325 3.5652
" />
<path d="M8.5325 3.5652
L8.5801 3.5176
" />
<path d="M8.9135 2.9462
L9.2944 2.9462
" />
<path d="M9.0563 2.6128
L9.0563 3.4700
" />
<path d="M9.0563 3.4700
L9.1039 3.5652
" />
<path d="M9.1039 3.5652
L9.1992 3.6128
" />
<path d="M9.1992 3.6128
L9.2944 3.6128
" />
<path d="M9.5801 3.5652
L9.6754 3.6128
" />
<path d="M9.6754 3.6128
L9.8658 3.6128
" />
<path d="M9.8658 3.6128
L9.9611 3.5652
" />
<path d="M9.9611 3.5652
L10.0087 3.4700
" />
<path d="M10.0087 3.4700
L10.0087 3.4223
" />
<path d="M10.0087 3.4223
L9.9611 3.3271
" />
<path d="M9.9611 3.3271
L9.8658 3.2795
" />
<path d="M9.8658 3.2795
L9.7230 3.2795
" />
<path d="M9.7230 3.2795
L9.6278 3.2319
" />
<path d="M9.6278 3.2319
L9.5801 3.1366
" />
<path d="M9.5801 3.1366
L9.5801 3.0890
" />
<path d="M9.5801 3.0890
L9.6278 2.9938
" />
<path d="M9.6278 2.9938
L9.7230 2.9462
" />
<path d="M9.7230 2.9462
L9.8658 2.9462
" />
<path d="M9.8658 2.9462
L9.9611 2.9938
" />
<path d="M11.1516 3.5652
L11.2468 3.6128
" />
<path d="M11.2468 3.6128
L11.4373 3.6128
" />
<path d="M11.4373 3.6128
L11.5325 3.5652
" />
<path d="M11.5325 3.5652
L11.5801 3.4700
" />
<path d="M11.5801 3.4700
L11.5801 3.4223
" />
<path d="M11.5801 3.4223
L11.5325 3.3271
" />
<path d="M11.5325 3.3271
L11.4373 3.2795
" />
<path d="M11.4373 3.2795
L11.2944 3.2795
" />
<path d="M11.2944 3.2795
L11.1992 3.2319
" />
<path d="M11.1992 3.2319
L11.1516 3.1366
" />
<path d="M11.1516 3.1366
L11.1516 3.0890
" />
<path d="M11.1516 3.0890
L11.1992 2.9938
" />
<path d="M11.1992 2.9938
L11.2944 2.9462
" />
<path d="M11.2944 2.9462
L11.4373 2.9462
" />
<path d="M11.4373 2.9462
L11.5325 2.9938
" />
<path d="M12.0087 3.6128
L12.0087 2.6128
" />
<path d="M12.4373 3.6128
L12.4373 3.0890
" />
<path d="M12.4373 3.0890
L12.3897 2.9938
" />
<path d="M12.3897 2.9938
L12.2944 2.9462
" />
<path d="M12.2944 2.9462
L12.1516 2.9462
" />
<path d="M12.1516 2.9462
L12.0563 2.9938
" />
<path d="M12.0563 2.9938
L12.0087 3.0414
" />
<path d="M13.0563 3.6128
L12.9611 3.5652
" />
<path d="M12.9611 3.5652
L12.9135 3.5176
" />
<path d="M12.9135 3.5176
L12.8658 3.4223
" />
<path d="M12.8658 3.4223
L12.8658 3.1366
" />
<path d="M12.8658 3.1366
L12.9135 3.0414
" />
<path d="M12.9135 3.0414
L12.9611 2.9938
" />
<path d="M12.9611 2.9938
L13.0563 2.9462
" />
<path d="M13.0563 2.9462
L13.1992 2.9462
" />
<path d="M13.1992 2.9462
L13.2944 2.9938
" />
<path d="M13.2944 2.9938
L13.3420 3.0414
" />
<path d="M13.3420 3.0414
L13.3897 3.1366
" />
<path d="M13.3897 3.1366
L13.3897 3.4223
" />
<path d="M13.3897 3.4223
L13.3420 3.5176
" />
<path d="M13.3420 3.5176
L13.2944 3.5652
" />
<path d="M13.2944 3.5652
L13.1992 3.6128
" />
<path d="M13.1992 3.6128
L13.0563 3.6128
" />
<path d="M13.7230 2.9462
L13.9135 3.6128
" />
<path d="M13.9135 3.6128
L14.1039 3.1366
" />
<path d="M14.1039 3.1366
L14.2944 3.6128
" />
<path d="M14.2944 3.6128
L14.4849 2.9462
" />
<path d="M14.8658 2.9462
L14.8658 3.6128
" />
<path d="M14.8658 3.0414
L14.9135 2.9938
" />
<path d="M14.9135 2.9938
L15.0087 2.9462
" />
<path d="M15.0087 2.9462
L15.1516 2.9462
" />
<path d="M15.1516 2.9462
L15.2468 2.9938
" />
<path d="M15.2468 2.9938
L15.2944 3.0890
" />
<path d="M15.2944 3.0890
L15.2944 3.6128
" />
<path d="M16.6754 3.6128
L16.5801 3.5652
" />
<path d="M16.5801 3.5652
L16.5325 3.5176
" />
<path d="M16.5325 3.5176
L16.4849 3.4223
" />
<path d="M16.4849 3.4223
L16.4849 3.1366
" />
<path d="M16.4849 3.1366
L16.5325 3.0414
" />
<path d="M16.5325 3.0414
L16.5801 2.9938
" />
<path d="M16.5801 2.9938
L16.6754 2.9462
" />
<path d="M16.6754 2.9462
L16.8182 2.9462
" />
<path d="M16.8182 2.9462
L16.9135 2.9938
" />
<path d="M16.9135 2.9938
L16.9611 3.0414
" />
<path d="M16.9611 3.0414
L17.0087 3.1366
" />
<path d="M17.0087 3.1366
L17.0087 3.4223
" />
<path d="M17.0087 3.4223
L16.9611 3.5176
" />
<path d="M16.9611 3.5176
L16.9135 3.5652
" />
<path d="M16.9135 3.5652
L16.8182 3.6128
" />
<path d="M16.8182 3.6128
L16.6754 3.6128
" />
<path d="M17.4373 2.9462
L17.4373 3.6128
" />
<path d="M17.4373 3.0414
L17.4849 2.9938
" />
<path d="M17.4849 2.9938
L17.5801 2.9462
" />
<path d="M17.5801 2.9462
L17.7230 2.9462
" />
<path d="M17.7230 2.9462
L17.8182 2.9938
" />
<path d="M17.8182 2.9938
L17.8658 3.0890
" />
<path d="M17.8658 3.0890
L17.8658 3.6128
" />
<path d="M19.1039 3.6128
L19.1039 2.6128
" />
<path d="M19.1039 2.6128
L19.3420 2.6128
" />
<path d="M19.3420 2.6128
L19.4849 2.6604
" />
<path d="M19.4849 2.6604
L19.5801 2.7557
" />
<path d="M19.5801 2.7557
L19.6278 2.8509
" />
<path d="M19.6278 2.8509
L19.6754 3.0414
" />
<path d="M19.6754 3.0414
L19.6754 3.1842
" />
<path d="M19.6754 3.1842
L19.6278 3.3747
" />
<path d="M19.6278 3.3747
L19.5801 3.4700
" />
<path d="M19.5801 3.4700
L19.4849 3.5652
" />
<path d="M19.4849 3.5652
L19.3420 3.6128
" />
<path d="M19.3420 3.6128
L19.1039 3.6128
" />
<path d="M20.0087 2.9462
L20.1992 3.6128
" />
<path d="M20.1992 3.6128
L20.3897 3.1366
" />
<path d="M20.3897 3.1366
L20.5801 3.6128
" />
<path d="M20.5801 3.6128
L20.7706 2.9462
" />
<path d="M21.5801 2.9462
L21.5801 3.7557
" />
<path d="M21.5801 3.7557
L21.5325 3.8509
" />
<path d="M21.5325 3.8509
L21.4849 3.8985
" />
<path d="M21.4849 3.8985
L21.3897 3.9462
" />
<path d="M21.3897 3.9462
L21.2468 3.9462
" />
<path d="M21.2468 3.9462
L21.1516 3.8985
" />
<path d="M21.5801 3.5652
L21.4849 3.6128
" />
<path d="M21.4849 3.6128
L21.2944 3.6128
" />
<path d="M21.2944 3.6128
L21.1992 3.5652
" />
<path d="M21.1992 3.5652
L21.1516 3.5176
" />
<path d="M21.1516 3.5176
L21.1039 3.4223
" />
<path d="M21.1039 3.4223
L21.1039 3.1366
" />
<path d="M21.1039 3.1366
L21.1516 3.0414
" />
<path d="M21.1516 3.0414
L21.1992 2.9938
" />
<path d="M21.1992 2.9938
L21.2944 2.9462
" />
<path d="M21.2944 2.9462
L21.4849 2.9462
" />
<path d="M21.4849 2.9462
L21.5801 2.9938
" />
<path d="M22.0087 3.5652
L22.1039 3.6128
" />
<path d="M22.1039 3.6128
L22.2944 3.6128
" />
<path d="M22.2944 3.6128
L22.3897 3.5652
" />
<path d="M22.3897 3.5652
L22.4373 3.4700
" />
<path d="M22.4373 3.4700
L22.4373 3.4223
" />
<path d="M22.4373 3.4223
L22.3897 3.3271
" />
<path d="M22.3897 3.3271
L22.2944 3.2795
" />
<path d="M22.2944 3.2795
L22.1516 3.2795
" />
<path d="M22.1516 3.2795
L22.0563 3.2319
" />
<path d="M22.0563 3.2319
L22.0087 3.1366
" />
<path d="M22.0087 3.1366
L22.0087 3.0890
" />
<path d="M22.0087 3.0890
L22.0563 2.9938
" />
<path d="M22.0563 2.9938
L22.1516 2.9462
" />
<path d="M22.1516 2.9462
L22.2944 2.9462
" />
<path d="M22.2944 2.9462
L22.3897 2.9938
" />
<path d="M23.7706 3.6128
L23.6754 3.5652
" />
<path d="M23.6754 3.5652
L23.6278 3.4700
" />
<path d="M23.6278 3.4700
L23.6278 2.6128
" />
<path d="M24.5801 3.6128
L24.5801 3.0890
" />
<path d="M24.5801 3.0890
L24.5325 2.9938
" />
<path d="M24.5325 2.9938
L24.4373 2.9462
" />
<path d="M24.4373 2.9462
L24.2468 2.9462
" />
<path d="M24.2468 2.9462
L24.1516 2.9938
" />
<path d="M24.5801 3.5652
L24.4849 3.6128
" />
<path d="M24.4849 3.6128
L24.2468 3.6128
" />
<path d="M24.2468 3.6128
L24.1516 3.5652
" />
<path d="M24.1516 3.5652
L24.1039 3.4700
" />
<path d="M24.1039 3.4700
L24.1039 3.3747
" />
<path d="M24.1039 3.3747
L24.1516 3.2795
" />
<path d="M24.1516 3.2795
L24.2468 3.2319
" />
<path d="M24.2468 3.2319
L24.4849 3.2319
" />
<path d="M24.4849 3.2319
L24.5801 3.1842
" />
<path d="M24.9611 2.9462
L25.1992 3.6128
" />
<path d="M25.4373 2.9462
L25.1992 3.6128
" />
<path d="M25.1992 3.6128
L25.1039 3.8509
" />
<path d="M25.1039 3.8509
L25.0563 3.8985
" />
<path d="M25.0563 3.8985
L24.9611 3.9462
" />
<path d="M26.1992 3.5652
L26.1039 3.6128
" />
<path d="M26.1039 3.6128
L25.9135 3.6128
" />
<path d="M25.9135 3.6128
L25.8182 3.5652
" />
<path d="M25.8182 3.5652
L25.7706 3.4700
" />
<path d="M25.7706 3.4700
L25.7706 3.0890
" />
<path d="M25.7706 3.0890
L25.8182 2.9938
" />
<path d="M25.8182 2.9938
L25.9135 2.9462
" />
<path d="M25.9135 2.9462
L26.1039 2.9462
" />
<path d="M26.1039 2.9462
L26.1992 2.9938
" />
<path d="M26.1992 2.9938
L26.2468 3.0890
" />
<path d="M26.2468 3.0890
L26.2468 3.1842
" />
<path d="M26.2468 3.1842
L25.7706 3.2795
" />
<path d="M26.6754 3.6128
L26.6754 2.9462
" />
<path d="M26.6754 3.1366
L26.7230 3.0414
" />
<path d="M26.7230 3.0414
L26.7706 2.9938
" />
<path d="M26.7706 2.9938
L26.8658 2.9462
" />
<path d="M26.8658 2.9462
L26.9611 2.9462
" />
</g><circle cx="99.6500" cy="64.2500" r="2.2000" /> 
<circle cx="28.3500" cy="23.6500" r="2.2000" /> 
<circle cx="119.8500" cy="52.1500" r="2.2000" /> 
<circle cx="119.8500" cy="35.1500" r="2.2000" /> 
<circle cx="83.4500" cy="17.6500" r="2.2000" /> 
<circle cx="26.0500" cy="64.2500" r="2.2000" /> 
<circle cx="101.8500" cy="35.1500" r="2.2000" /> 
<g >
</g>
<g >
</g>
<g >
</g>
<g >
</g>
<g >
</g>
<g >
</g>
<g >
</g>
<g >
</g>
<g >
</g>
<g >
</g>
<g >
</g>
<g >
</g>
<g >
</g>
<g >
</g>
<g >
</g>
<g >
</g>
<g >
</g>
<g >
</g>
<g >
</g>
<g >
</g>
<g >
</g>
<g >
</g>
<g >
</g>
<g >
</g>
<g >
</g>
<g >
</g>
<g >
</g>
<g >
</g>
<g >
</g>
<g >
</g>
<g >
</g>
<g >
</g>
<g >
</g>
<g >
</g>
<g >
</g>
<g >
</g>
<g >
</g>
<g >
</g>
<g >
</g>
</g> 
</svg>
