<?xml version="1.0" encoding="UTF-8" standalone="no"?>
<svg
   version="1.1"
   width="138.8872mm"
   height="89.9922mm"
   viewBox="0.0000 0.0000 138.8872 89.9922"
   id="svg658"
   sodipodi:docname="keyboard_pcb-brd.svg"
   inkscape:version="1.3 (0e150ed, 2023-07-21)"
   xmlns:inkscape="http://www.inkscape.org/namespaces/inkscape"
   xmlns:sodipodi="http://sodipodi.sourceforge.net/DTD/sodipodi-0.dtd"
   xmlns="http://www.w3.org/2000/svg"
   xmlns:svg="http://www.w3.org/2000/svg">
  <defs
     id="defs658" />
  <sodipodi:namedview
     id="namedview658"
     pagecolor="#505050"
     bordercolor="#eeeeee"
     borderopacity="1"
     inkscape:showpageshadow="0"
     inkscape:pageopacity="0"
     inkscape:pagecheckerboard="0"
     inkscape:deskcolor="#d1d1d1"
     inkscape:document-units="mm"
     inkscape:zoom="0.83113277"
     inkscape:cx="196.71947"
     inkscape:cy="269.51169"
     inkscape:window-width="1392"
     inkscape:window-height="1027"
     inkscape:window-x="0"
     inkscape:window-y="25"
     inkscape:window-maximized="0"
     inkscape:current-layer="g360" />
  <title
     id="title1">SVG Image created as keyboard_pcb-brd.svg date 2023/09/23 15:56:22 </title>
  <desc
     id="desc1">Image generated by PCBNEW </desc>
  <g
     style="fill:#000000; fill-opacity:1.0000;stroke:#000000; stroke-opacity:1.0000; stroke-linecap:round; stroke-linejoin:round;"
     transform="translate(0 0) scale(1 1)"
     id="g1" />
  <g
     style="fill:#000000; fill-opacity:0.0;  stroke:#000000; stroke-width:0.0000; stroke-opacity:1;  stroke-linecap:round; stroke-linejoin:round;"
     id="g2" />
  <g
     style="fill:#5994DC; fill-opacity:0.0;  stroke:#5994DC; stroke-width:0.0000; stroke-opacity:1;  stroke-linecap:round; stroke-linejoin:round;"
     id="g3" />
  <g
     style="fill:#5994DC; fill-opacity:0.0;  stroke:#5994DC; stroke-width:0.1500; stroke-opacity:1;  stroke-linecap:round; stroke-linejoin:round;"
     id="g360">
    <circle
       cx="39.2500"
       cy="64.2500"
       r="2.2000"
       id="circle315" />
    <circle
       cx="110.5500"
       cy="23.6500"
       r="2.2000"
       id="circle316" />
    <circle
       cx="19.0500"
       cy="52.1500"
       r="2.2000"
       id="circle317" />
    <circle
       cx="19.0500"
       cy="35.1500"
       r="2.2000"
       id="circle318" />
    <circle
       cx="55.4500"
       cy="17.6500"
       r="2.2000"
       id="circle319" />
    <circle
       cx="112.8500"
       cy="64.2500"
       r="2.2000"
       id="circle320" />
    <circle
       cx="37.0500"
       cy="35.1500"
       r="2.2000"
       id="circle321" />
    <g
       id="g321" />
    <g
       id="g322" />
    <g
       id="g323" />
    <g
       id="g324" />
    <g
       id="g325" />
    <g
       id="g326" />
    <g
       id="g327" />
    <g
       id="g328" />
    <g
       id="g329" />
    <g
       id="g330" />
    <g
       id="g331" />
    <g
       id="g332" />
    <g
       id="g333" />
    <g
       id="g334" />
    <g
       id="g335" />
    <g
       id="g336" />
    <g
       id="g337" />
    <g
       id="g338" />
    <g
       id="g339" />
    <g
       id="g340" />
    <g
       id="g341" />
    <g
       id="g342" />
    <g
       id="g343" />
    <g
       id="g344" />
    <g
       id="g345" />
    <g
       id="g346" />
    <g
       id="g347" />
    <g
       id="g348" />
    <g
       id="g349" />
    <g
       id="g350" />
    <g
       id="g351" />
    <g
       id="g352" />
    <g
       id="g353" />
    <g
       id="g354" />
    <g
       id="g355" />
    <g
       id="g356" />
    <g
       id="g357" />
    <g
       id="g358" />
    <g
       id="g359" />
  </g>
  <g
     style="fill:#000000; fill-opacity:0.0;  stroke:#000000; stroke-width:0.1500; stroke-opacity:1;  stroke-linecap:round; stroke-linejoin:round;"
     id="g361" />
  <g
     style="fill:#D8C852; fill-opacity:0.0;  stroke:#D8C852; stroke-width:0.1500; stroke-opacity:1;  stroke-linecap:round; stroke-linejoin:round;"
     id="g567">
    <path
       d="M106.9500 43.7500 L93.1500 43.7500 "
       id="path361" />
    <path
       d="M106.9500 43.7500 L106.9500 57.5500 "
       id="path364" />
    <path
       d="M93.1500 57.5500 L106.9500 57.5500 "
       id="path366" />
    <path
       d="M93.1500 57.5500 L93.1500 43.7500 "
       id="path368" />
    <path
       d="M88.9500 41.7500 L88.9500 55.5500 "
       id="path370" />
    <path
       d="M75.1500 55.5500 L88.9500 55.5500 "
       id="path371" />
    <path
       d="M88.9500 41.7500 L75.1500 41.7500 "
       id="path373" />
    <path
       d="M75.1500 55.5500 L75.1500 41.7500 "
       id="path376" />
    <path
       d="M34.9500 53.7500 L34.9500 67.5500 "
       id="path377" />
    <path
       d="M21.1500 67.5500 L34.9500 67.5500 "
       id="path380" />
    <path
       d="M21.1500 67.5500 L21.1500 53.7500 "
       id="path381" />
    <path
       d="M34.9500 53.7500 L21.1500 53.7500 "
       id="path383" />
    <path
       d="M39.1500 21.5500 L39.1500 7.7500 "
       id="path386" />
    <path
       d="M52.9500 7.7500 L52.9500 21.5500 "
       id="path390" />
    <path
       d="M39.1500 21.5500 L52.9500 21.5500 "
       id="path391" />
    <path
       d="M52.9500 7.7500 L39.1500 7.7500 "
       id="path392" />
    <path
       d="M3.1500 50.5500 L3.1500 36.7500 "
       id="path393" />
    <path
       d="M16.9500 36.7500 L3.1500 36.7500 "
       id="path394" />
    <path
       d="M16.9500 36.7500 L16.9500 50.5500 "
       id="path396" />
    <path
       d="M3.1500 50.5500 L16.9500 50.5500 "
       id="path397" />
    <path
       d="M88.9500 7.7500 L75.1500 7.7500 "
       id="path402" />
    <path
       d="M75.1500 21.5500 L88.9500 21.5500 "
       id="path403" />
    <path
       d="M75.1500 21.5500 L75.1500 7.7500 "
       id="path407" />
    <path
       d="M88.9500 7.7500 L88.9500 21.5500 "
       id="path408" />
    <path
       d="M39.1500 38.5500 L39.1500 24.7500 "
       id="path413" />
    <path
       d="M39.1500 38.5500 L52.9500 38.5500 "
       id="path414" />
    <path
       d="M52.9500 24.7500 L39.1500 24.7500 "
       id="path415" />
    <path
       d="M52.9500 24.7500 L52.9500 38.5500 "
       id="path416" />
    <path
       d="M83.3224 62.1749 L84.5251 75.9224 "
       id="path417" />
    <path
       d="M83.3224 62.1749 L69.5749 63.3776 "
       id="path418" />
    <path
       d="M70.7776 77.1251 L69.5749 63.3776 "
       id="path422" />
    <path
       d="M70.7776 77.1251 L84.5251 75.9224 "
       id="path423" />
    <path
       d="M34.9500 19.7500 L21.1500 19.7500 "
       id="path425" />
    <path
       d="M21.1500 33.5500 L21.1500 19.7500 "
       id="path428" />
    <path
       d="M34.9500 19.7500 L34.9500 33.5500 "
       id="path429" />
    <path
       d="M21.1500 33.5500 L34.9500 33.5500 "
       id="path432" />
    <path
       d="M75.1500 38.5500 L88.9500 38.5500 "
       id="path434" />
    <path
       d="M88.9500 24.7500 L88.9500 38.5500 "
       id="path435" />
    <path
       d="M75.1500 38.5500 L75.1500 24.7500 "
       id="path437" />
    <path
       d="M88.9500 24.7500 L75.1500 24.7500 "
       id="path438" />
    <path
       d="M70.9500 36.7500 L70.9500 50.5500 "
       id="path441" />
    <path
       d="M57.1500 50.5500 L70.9500 50.5500 "
       id="path442" />
    <path
       d="M70.9500 36.7500 L57.1500 36.7500 "
       id="path445" />
    <path
       d="M57.1500 50.5500 L57.1500 36.7500 "
       id="path448" />
    <path
       d="M57.1500 16.5500 L70.9500 16.5500 "
       id="path449" />
    <path
       d="M70.9500 2.7500 L70.9500 16.5500 "
       id="path450" />
    <path
       d="M57.1500 16.5500 L57.1500 2.7500 "
       id="path452" />
    <path
       d="M70.9500 2.7500 L57.1500 2.7500 "
       id="path456" />
    <path
       d="M39.1500 55.5500 L52.9500 55.5500 "
       id="path459" />
    <path
       d="M52.9500 41.7500 L39.1500 41.7500 "
       id="path460" />
    <path
       d="M52.9500 41.7500 L52.9500 55.5500 "
       id="path461" />
    <path
       d="M39.1500 55.5500 L39.1500 41.7500 "
       id="path462" />
    <path
       d="M93.1500 40.5500 L106.9500 40.5500 "
       id="path465" />
    <path
       d="M93.1500 40.5500 L93.1500 26.7500 "
       id="path466" />
    <path
       d="M106.9500 26.7500 L106.9500 40.5500 "
       id="path470" />
    <path
       d="M106.9500 26.7500 L93.1500 26.7500 "
       id="path471" />
    <path
       d="M110.8804 80.9875 L123.3875 86.8196 "
       id="path473" />
    <path
       d="M110.8804 80.9875 L116.7125 68.4804 "
       id="path475" />
    <path
       d="M129.2196 74.3125 L116.7125 68.4804 "
       id="path478" />
    <path
       d="M129.2196 74.3125 L123.3875 86.8196 "
       id="path479" />
    <path
       d="M21.1500 50.5500 L34.9500 50.5500 "
       id="path481" />
    <path
       d="M21.1500 50.5500 L21.1500 36.7500 "
       id="path483" />
    <path
       d="M34.9500 36.7500 L34.9500 50.5500 "
       id="path484" />
    <path
       d="M34.9500 36.7500 L21.1500 36.7500 "
       id="path488" />
    <path
       d="M93.1500 23.5500 L93.1500 9.7500 "
       id="path489" />
    <path
       d="M106.9500 9.7500 L106.9500 23.5500 "
       id="path490" />
    <path
       d="M93.1500 23.5500 L106.9500 23.5500 "
       id="path491" />
    <path
       d="M106.9500 9.7500 L93.1500 9.7500 "
       id="path495" />
    <path
       d="M16.9500 53.7500 L16.9500 67.5500 "
       id="path497" />
    <path
       d="M3.1500 67.5500 L16.9500 67.5500 "
       id="path498" />
    <path
       d="M16.9500 53.7500 L3.1500 53.7500 "
       id="path502" />
    <path
       d="M3.1500 67.5500 L3.1500 53.7500 "
       id="path504" />
    <path
       d="M70.9500 19.7500 L70.9500 33.5500 "
       id="path505" />
    <path
       d="M70.9500 19.7500 L57.1500 19.7500 "
       id="path506" />
    <path
       d="M57.1500 33.5500 L57.1500 19.7500 "
       id="path507" />
    <path
       d="M57.1500 33.5500 L70.9500 33.5500 "
       id="path508" />
    <path
       d="M3.1500 33.5500 L16.9500 33.5500 "
       id="path513" />
    <path
       d="M16.9500 19.7500 L3.1500 19.7500 "
       id="path514" />
    <path
       d="M16.9500 19.7500 L16.9500 33.5500 "
       id="path516" />
    <path
       d="M3.1500 33.5500 L3.1500 19.7500 "
       id="path520" />
    <path
       d="M107.0433 65.0530 L93.4530 62.6567 "
       id="path521" />
    <path
       d="M91.0567 76.2470 L104.6470 78.6433 "
       id="path522" />
    <path
       d="M91.0567 76.2470 L93.4530 62.6567 "
       id="path526" />
    <path
       d="M107.0433 65.0530 L104.6470 78.6433 "
       id="path527" />
    <g
       id="g528" />
    <g
       id="g529" />
    <g
       id="g530" />
    <g
       id="g531" />
    <g
       id="g532" />
    <g
       id="g533" />
    <g
       id="g534" />
    <g
       id="g535" />
    <g
       id="g536" />
    <g
       id="g537" />
    <g
       id="g538" />
    <g
       id="g539" />
    <g
       id="g540" />
    <g
       id="g541" />
    <g
       id="g542" />
    <g
       id="g543" />
    <g
       id="g544" />
    <g
       id="g545" />
    <g
       id="g546" />
    <g
       id="g547" />
    <g
       id="g548" />
    <g
       id="g549" />
    <g
       id="g550" />
    <g
       id="g551" />
    <g
       id="g552" />
    <g
       id="g553" />
    <g
       id="g554" />
    <g
       id="g555" />
    <g
       id="g556" />
    <g
       id="g557" />
    <g
       id="g558" />
    <g
       id="g559" />
    <g
       id="g560" />
    <g
       id="g561" />
    <g
       id="g562" />
    <g
       id="g563" />
    <g
       id="g564" />
    <g
       id="g565" />
    <g
       id="g566" />
    <path
       style="vector-effect:non-scaling-stroke;fill:#a0671d;stroke-width:0.0396875;-inkscape-stroke:hairline"
       d="m 10.05,26.65 v 17 17 h 18 v -17 -17 l 17.999998,-12 v 17 17.000001 L 64.049999,43.65 V 26.65 9.6499999 L 82.05,14.65 v 17 17.000001 l 18,1.999998 v -17 V 16.65 v 0 z"
       id="path658" />
    <path
       style="vector-effect:non-scaling-stroke;fill:#a0001d;stroke-width:0.0396875;-inkscape-stroke:hairline;fill-opacity:0"
       d="m 77.040755,69.451849 22.172432,1.117259 20.920613,7.225384 z"
       id="path659" />
  </g>
  <g
     style="fill:#000000; fill-opacity:0.0;  stroke:#000000; stroke-width:0.1500; stroke-opacity:1;  stroke-linecap:round; stroke-linejoin:round;"
     id="g568" />
  <g
     style="fill:#D0D2CD; fill-opacity:0.0;  stroke:#D0D2CD; stroke-width:0.1500; stroke-opacity:1;  stroke-linecap:round; stroke-linejoin:round;"
     id="g569" />
  <g
     style="fill:#D0D2CD; fill-opacity:0.0;  stroke:#D0D2CD; stroke-width:0.1000; stroke-opacity:1;  stroke-linecap:round; stroke-linejoin:round;"
     id="g658">
    <path
       d="M17.6500 54.5500 L17.6500 61.9500 "
       id="path569" />
    <path
       d="M138.8500 8.8500 A1.8000 1.8000 0.0 0 0 137.0500 7.0500"
       id="path570" />
    <path
       d="M34.0500 17.0500 L19.6500 17.0500 "
       id="path571" />
    <path
       d="M38.0500 5.0500 A2.0000 2.0000 0.0 0 0 36.0500 7.0500"
       id="path572" />
    <path
       d="M19.6500 70.2500 L42.5500 70.2500 "
       id="path573" />
    <path
       d="M126.0000 89.1000 L138.4840 72.1379 "
       id="path574" />
    <path
       d="M63.8000 77.7750 A9.6503 9.6503 0.0 0 0 70.5500 79.8250"
       id="path575" />
    <path
       d="M56.0500 0.0500 A2.0000 2.0000 0.0 0 0 54.0500 2.0500"
       id="path576" />
    <path
       d="M16.8500 19.0500 A2.0000 2.0000 0.0 0 0 14.8500 17.0500"
       id="path577" />
    <path
       d="M137.0500 7.0500 L93.8000 7.0500 "
       id="path578" />
    <path
       d="M54.0500 2.0500 L54.0500 3.0500 "
       id="path579" />
    <path
       d="M16.8500 19.0500 A0.4000 0.4000 0.0 0 0 17.6500 19.0500"
       id="path580" />
    <path
       d="M74.0500 3.0500 L74.0500 2.0500 "
       id="path581" />
    <path
       d="M17.6500 25.3500 L17.6500 32.7500 "
       id="path582" />
    <path
       d="M16.8500 49.7500 A0.4000 0.4000 0.0 0 0 17.6500 49.7500"
       id="path583" />
    <path
       d="M17.6500 68.2500 A0.4000 0.4000 0.0 0 0 16.8500 68.2500"
       id="path584" />
    <path
       d="M16.8500 32.7500 A0.4000 0.4000 0.0 0 0 17.6500 32.7500"
       id="path585" />
    <path
       d="M14.8500 70.2500 A2.0000 2.0000 0.0 0 0 16.8500 68.2500"
       id="path586" />
    <path
       d="M16.8500 54.5500 L16.8500 61.9500 "
       id="path587" />
    <path
       d="M138.4840 72.1379 A1.8000 1.8000 0.0 0 0 138.8500 71.0500"
       id="path588" />
    <path
       d="M36.0500 7.0500 L36.0500 15.0500 "
       id="path589" />
    <path
       d="M17.6500 25.3500 A0.4000 0.4000 0.0 0 0 16.8500 25.3500"
       id="path590" />
    <path
       d="M14.8500 17.0500 L2.0500 17.0500 "
       id="path591" />
    <path
       d="M2.0500 70.2500 L14.8500 70.2500 "
       id="path592" />
    <path
       d="M74.0500 2.0500 A2.0000 2.0000 0.0 0 0 72.0500 0.0500"
       id="path593" />
    <path
       d="M52.0500 5.0500 A2.0000 2.0000 0.0 0 0 54.0500 3.0500"
       id="path594" />
    <path
       d="M0.0500 68.2500 A2.0000 2.0000 0.0 0 0 2.0500 70.2500"
       id="path595" />
    <path
       d="M138.8500 71.0500 L138.8500 69.8500 "
       id="path596" />
    <path
       d="M77.8500 79.2500 L70.5500 79.8250 "
       id="path597" />
    <path
       d="M116.1794 86.4500 L123.5639 89.7714 "
       id="path598" />
    <path
       d="M17.6500 68.2500 A2.0000 2.0000 0.0 0 0 19.6500 70.2500"
       id="path599" />
    <path
       d="M74.0500 3.0500 A2.0000 2.0000 0.0 0 0 76.0500 5.0500"
       id="path600" />
    <path
       d="M16.8500 25.3500 L16.8500 32.7500 "
       id="path601" />
    <path
       d="M92.0500 6.0500 A2.0312 2.0312 0.0 0 0 93.8000 7.0500"
       id="path602" />
    <path
       d="M0.0500 19.0500 L0.0500 68.2500 "
       id="path603" />
    <path
       d="M17.6500 54.5500 A0.4000 0.4000 0.0 0 0 16.8500 54.5500"
       id="path604" />
    <path
       d="M16.8500 37.5500 L16.8500 49.7500 "
       id="path605" />
    <path
       d="M17.6500 37.5500 A0.4000 0.4000 0.0 0 0 16.8500 37.5500"
       id="path606" />
    <path
       d="M72.0500 0.0500 L56.0500 0.0500 "
       id="path607" />
    <path
       d="M2.0500 17.0500 A2.0000 2.0000 0.0 0 0 0.0500 19.0500"
       id="path608" />
    <path
       d="M63.8000 77.7750 A34.5380 34.5380 0.0 0 0 42.5500 70.2500"
       id="path609" />
    <path
       d="M52.0500 5.0500 L38.0500 5.0500 "
       id="path610" />
    <path
       d="M92.0500 6.0500 A1.9450 1.9450 0.0 0 0 90.3500 5.0500"
       id="path611" />
    <path
       d="M17.6500 37.5500 L17.6500 49.7500 "
       id="path612" />
    <path
       d="M138.8500 69.8500 L138.8500 8.8500 "
       id="path613" />
    <path
       d="M16.8500 61.9500 A0.4000 0.4000 0.0 0 0 17.6500 61.9500"
       id="path614" />
    <path
       d="M34.0500 17.0500 A2.0000 2.0000 0.0 0 0 36.0500 15.0500"
       id="path615" />
    <path
       d="M19.6500 17.0500 A2.0000 2.0000 0.0 0 0 17.6500 19.0500"
       id="path616" />
    <path
       d="M123.5639 89.7714 A1.9138 1.9138 0.0 0 0 126.0000 89.1000"
       id="path617" />
    <path
       d="M90.3500 5.0500 L76.0500 5.0500 "
       id="path618" />
    <path
       d="M116.1794 86.4500 A72.2355 72.2355 0.0 0 0 77.8500 79.2500"
       id="path619" />
    <g
       id="g619" />
    <g
       id="g620" />
    <g
       id="g621" />
    <g
       id="g622" />
    <g
       id="g623" />
    <g
       id="g624" />
    <g
       id="g625" />
    <g
       id="g626" />
    <g
       id="g627" />
    <g
       id="g628" />
    <g
       id="g629" />
    <g
       id="g630" />
    <g
       id="g631" />
    <g
       id="g632" />
    <g
       id="g633" />
    <g
       id="g634" />
    <g
       id="g635" />
    <g
       id="g636" />
    <g
       id="g637" />
    <g
       id="g638" />
    <g
       id="g639" />
    <g
       id="g640" />
    <g
       id="g641" />
    <g
       id="g642" />
    <g
       id="g643" />
    <g
       id="g644" />
    <g
       id="g645" />
    <g
       id="g646" />
    <g
       id="g647" />
    <g
       id="g648" />
    <g
       id="g649" />
    <g
       id="g650" />
    <g
       id="g651" />
    <g
       id="g652" />
    <g
       id="g653" />
    <g
       id="g654" />
    <g
       id="g655" />
    <g
       id="g656" />
    <g
       id="g657" />
  </g>
</svg>
