<?xml version="1.0" encoding="UTF-8" standalone="no"?>
<svg
   version="1.1"
   width="138.8872mm"
   height="89.9922mm"
   viewBox="0.0000 0.0000 138.8872 89.9922"
   id="svg91"
   sodipodi:docname="right-outline.svg"
   inkscape:version="1.3 (0e150ed, 2023-07-21)"
   xmlns:inkscape="http://www.inkscape.org/namespaces/inkscape"
   xmlns:sodipodi="http://sodipodi.sourceforge.net/DTD/sodipodi-0.dtd"
   xmlns="http://www.w3.org/2000/svg"
   xmlns:svg="http://www.w3.org/2000/svg"
   xmlns:rdf="http://www.w3.org/1999/02/22-rdf-syntax-ns#"
   xmlns:cc="http://creativecommons.org/ns#"
   xmlns:dc="http://purl.org/dc/elements/1.1/">
  <defs
     id="defs91" />
  <sodipodi:namedview
     id="namedview91"
     pagecolor="#505050"
     bordercolor="#eeeeee"
     borderopacity="1"
     inkscape:showpageshadow="0"
     inkscape:pageopacity="0"
     inkscape:pagecheckerboard="0"
     inkscape:deskcolor="#d1d1d1"
     inkscape:document-units="mm"
     inkscape:zoom="6.6490621"
     inkscape:cx="450.51466"
     inkscape:cy="121.97209"
     inkscape:window-width="1392"
     inkscape:window-height="1027"
     inkscape:window-x="0"
     inkscape:window-y="25"
     inkscape:window-maximized="0"
     inkscape:current-layer="g91" />
  <title
     id="title1">SVG Image created as keyboard_pcb-Edge_Cuts.svg date 2023/09/23 16:06:58 </title>
  <desc
     id="desc1">Image generated by PCBNEW </desc>
  <g
     style="fill:#000000; fill-opacity:1.0000;stroke:#000000; stroke-opacity:1.0000; stroke-linecap:round; stroke-linejoin:round;"
     transform="translate(0 0) scale(1 1)"
     id="g1" />
  <g
     style="fill:#000000; fill-opacity:0.0;  stroke:#000000; stroke-width:0.0000; stroke-opacity:1;  stroke-linecap:round; stroke-linejoin:round;"
     id="g2" />
  <g
     style="fill:#000000; fill-opacity:0.0;  stroke:#000000; stroke-width:0.1000; stroke-opacity:1;  stroke-linecap:round; stroke-linejoin:round;"
     id="g91">
    <path
       d="M1.8500 7.0500 A1.8000 1.8000 0.0 0 0 0.0500 8.8500"
       id="path3" />
    <path
       d="M102.8500 7.0500 A2.0000 2.0000 0.0 0 0 100.8500 5.0500"
       id="path5" />
    <path
       d="m 96.35,70.25 h 22.9 4.8 12.8"
       id="path6"
       sodipodi:nodetypes="cccc" />
    <path
       d="M0.4160 72.1379 L12.9000 89.1000 "
       id="path7" />
    <path
       d="M68.3500 79.8250 A9.6505 9.6505 0.0 0 0 75.1000 77.7750"
       id="path8" />
    <path
       d="M84.8500 2.0500 A2.0000 2.0000 0.0 0 0 82.8500 0.0500"
       id="path9" />
    <path
       d="M45.1000 7.0500 L1.8500 7.0500 "
       id="path11" />
    <path
       d="M84.8500 3.0500 L84.8500 2.0500 "
       id="path12" />
    <path
       d="M64.8500 2.0500 L64.8500 3.0500 "
       id="path14" />
    <path
       d="M0.0500 71.0500 A1.8000 1.8000 0.0 0 0 0.4160 72.1379"
       id="path21" />
    <path
       d="M102.8500 15.0500 L102.8500 7.0500 "
       id="path22" />
    <path
       d="m 136.85,17.05 h -12.8 -4.8 -14.4"
       id="path24"
       sodipodi:nodetypes="cccc" />
    <path
       d="M66.8500 0.0500 A2.0000 2.0000 0.0 0 0 64.8500 2.0500"
       id="path26" />
    <path
       d="M84.8500 3.0500 A2.0000 2.0000 0.0 0 0 86.8500 5.0500"
       id="path27" />
    <path
       d="M136.8500 70.2500 A2.0000 2.0000 0.0 0 0 138.8500 68.2500"
       id="path28" />
    <path
       d="M0.0500 69.8500 L0.0500 71.0500 "
       id="path29" />
    <path
       d="M68.3500 79.8250 L61.0500 79.2500 "
       id="path30" />
    <path
       d="M15.3361 89.7714 L22.7206 86.4500 "
       id="path31" />
    <path
       d="M62.8500 5.0500 A2.0000 2.0000 0.0 0 0 64.8500 3.0500"
       id="path33" />
    <path
       d="M45.1000 7.0500 A2.0311 2.0311 0.0 0 0 46.8500 6.0500"
       id="path35" />
    <path
       d="M138.8500 68.2500 L138.8500 19.0500 "
       id="path36" />
    <path
       d="M82.8500 0.0500 L66.8500 0.0500 "
       id="path40" />
    <path
       d="M138.8500 19.0500 A2.0000 2.0000 0.0 0 0 136.8500 17.0500"
       id="path41" />
    <path
       d="M96.3500 70.2500 A34.5380 34.5380 0.0 0 0 75.1000 77.7750"
       id="path42" />
    <path
       d="M100.8500 5.0500 L86.8500 5.0500 "
       id="path43" />
    <path
       d="M48.5500 5.0500 A1.9450 1.9450 0.0 0 0 46.8500 6.0500"
       id="path44" />
    <path
       d="M0.0500 8.8500 L0.0500 69.8500 "
       id="path46" />
    <path
       d="M102.8500 15.0500 A2.0000 2.0000 0.0 0 0 104.8500 17.0500"
       id="path48" />
    <path
       d="M12.9000 89.1000 A1.9138 1.9138 0.0 0 0 15.3361 89.7714"
       id="path50" />
    <path
       d="M62.8500 5.0500 L48.5500 5.0500 "
       id="path51" />
    <path
       d="M61.0500 79.2500 A72.2355 72.2355 0.0 0 0 22.7206 86.4500"
       id="path52" />
    <g
       id="g52" />
    <g
       id="g53" />
    <g
       id="g54" />
    <g
       id="g55" />
    <g
       id="g56" />
    <g
       id="g57" />
    <g
       id="g58" />
    <g
       id="g59" />
    <g
       id="g60" />
    <g
       id="g61" />
    <g
       id="g62" />
    <g
       id="g63" />
    <g
       id="g64" />
    <g
       id="g65" />
    <g
       id="g66" />
    <g
       id="g67" />
    <g
       id="g68" />
    <g
       id="g69" />
    <g
       id="g70" />
    <g
       id="g71" />
    <g
       id="g72" />
    <g
       id="g73" />
    <g
       id="g74" />
    <g
       id="g75" />
    <g
       id="g76" />
    <g
       id="g77" />
    <g
       id="g78" />
    <g
       id="g79" />
    <g
       id="g80" />
    <g
       id="g81" />
    <g
       id="g82" />
    <g
       id="g83" />
    <g
       id="g84" />
    <g
       id="g85" />
    <g
       id="g86" />
    <g
       id="g87" />
    <g
       id="g88" />
    <g
       id="g89" />
    <g
       id="g90" />
  </g>
  <metadata
     id="metadata91">
    <rdf:RDF>
      <cc:Work
         rdf:about="">
        <dc:title>SVG Image created as keyboard_pcb-Edge_Cuts.svg date 2023/09/23 16:06:58 </dc:title>
      </cc:Work>
    </rdf:RDF>
  </metadata>
</svg>
