<?xml version="1.0" encoding="UTF-8" standalone="no"?>
<svg
   version="1.1"
   width="138.8872mm"
   height="89.9922mm"
   viewBox="0.0000 0.0000 138.8872 89.9922"
   id="svg208"
   sodipodi:docname="right-switches.svg"
   inkscape:version="1.3 (0e150ed, 2023-07-21)"
   xmlns:inkscape="http://www.inkscape.org/namespaces/inkscape"
   xmlns:sodipodi="http://sodipodi.sourceforge.net/DTD/sodipodi-0.dtd"
   xmlns="http://www.w3.org/2000/svg"
   xmlns:svg="http://www.w3.org/2000/svg"
   xmlns:rdf="http://www.w3.org/1999/02/22-rdf-syntax-ns#"
   xmlns:cc="http://creativecommons.org/ns#"
   xmlns:dc="http://purl.org/dc/elements/1.1/">
  <defs
     id="defs208" />
  <sodipodi:namedview
     id="namedview208"
     pagecolor="#505050"
     bordercolor="#eeeeee"
     borderopacity="1"
     inkscape:showpageshadow="0"
     inkscape:pageopacity="0"
     inkscape:pagecheckerboard="0"
     inkscape:deskcolor="#d1d1d1"
     inkscape:document-units="mm"
     showgrid="false"
     inkscape:zoom="1.1753992"
     inkscape:cx="262.46401"
     inkscape:cy="170.15495"
     inkscape:window-width="1392"
     inkscape:window-height="1027"
     inkscape:window-x="0"
     inkscape:window-y="25"
     inkscape:window-maximized="0"
     inkscape:current-layer="g208" />
  <title
     id="title1">SVG Image created as keyboard_pcb-User_Eco2.svg date 2023/09/23 16:06:58 </title>
  <desc
     id="desc1">Image generated by PCBNEW </desc>
  <g
     style="fill:#000000; fill-opacity:1.0000;stroke:#000000; stroke-opacity:1.0000; stroke-linecap:round; stroke-linejoin:round;"
     transform="translate(0 0) scale(1 1)"
     id="g1" />
  <g
     style="fill:#000000; fill-opacity:0.0;  stroke:#000000; stroke-width:0.0000; stroke-opacity:1;  stroke-linecap:round; stroke-linejoin:round;"
     id="g2" />
  <g
     style="fill:#000000; fill-opacity:0.0;  stroke:#000000; stroke-width:0.1500; stroke-opacity:1;  stroke-linecap:round; stroke-linejoin:round;"
     id="g208">
    <path
       d="M45.7500 43.7500 L45.7500 57.5500 "
       id="path4" />
    <path
       d="M45.7500 43.7500 L31.9500 43.7500 "
       id="path7" />
    <path
       d="M31.9500 57.5500 L31.9500 43.7500 "
       id="path8" />
    <path
       d="M31.9500 57.5500 L45.7500 57.5500 "
       id="path9" />
    <path
       d="M63.7500 41.7500 L63.7500 55.5500 "
       id="path11" />
    <path
       d="M63.7500 41.7500 L49.9500 41.7500 "
       id="path13" />
    <path
       d="M49.9500 55.5500 L63.7500 55.5500 "
       id="path15" />
    <path
       d="M49.9500 55.5500 L49.9500 41.7500 "
       id="path17" />
    <path
       d="M117.7500 53.7500 L103.9500 53.7500 "
       id="path20" />
    <path
       d="M117.7500 53.7500 L117.7500 67.5500 "
       id="path22" />
    <path
       d="M103.9500 67.5500 L103.9500 53.7500 "
       id="path23" />
    <path
       d="M103.9500 67.5500 L117.7500 67.5500 "
       id="path24" />
    <path
       d="M85.9500 21.5500 L99.7500 21.5500 "
       id="path26" />
    <path
       d="M99.7500 7.7500 L99.7500 21.5500 "
       id="path27" />
    <path
       d="M85.9500 21.5500 L85.9500 7.7500 "
       id="path31" />
    <path
       d="M99.7500 7.7500 L85.9500 7.7500 "
       id="path33" />
    <path
       d="M135.7500 36.7500 L121.9500 36.7500 "
       id="path34" />
    <path
       d="M135.7500 36.7500 L135.7500 50.5500 "
       id="path36" />
    <path
       d="M121.9500 50.5500 L135.7500 50.5500 "
       id="path39" />
    <path
       d="M121.9500 50.5500 L121.9500 36.7500 "
       id="path40" />
    <path
       d="M49.9500 21.5500 L49.9500 7.7500 "
       id="path42" />
    <path
       d="M63.7500 7.7500 L49.9500 7.7500 "
       id="path43" />
    <path
       d="M49.9500 21.5500 L63.7500 21.5500 "
       id="path44" />
    <path
       d="M63.7500 7.7500 L63.7500 21.5500 "
       id="path49" />
    <path
       d="M99.7500 24.7500 L85.9500 24.7500 "
       id="path51" />
    <path
       d="M85.9500 38.5500 L99.7500 38.5500 "
       id="path54" />
    <path
       d="M85.9500 38.5500 L85.9500 24.7500 "
       id="path55" />
    <path
       d="M99.7500 24.7500 L99.7500 38.5500 "
       id="path57" />
    <path
       d="M69.3251 63.3776 L68.1224 77.1251 "
       id="path60" />
    <path
       d="M54.3749 75.9224 L68.1224 77.1251 "
       id="path61" />
    <path
       d="M69.3251 63.3776 L55.5776 62.1749 "
       id="path62" />
    <path
       d="M54.3749 75.9224 L55.5776 62.1749 "
       id="path63" />
    <path
       d="M117.7500 19.7500 L117.7500 33.5500 "
       id="path66" />
    <path
       d="M103.9500 33.5500 L103.9500 19.7500 "
       id="path69" />
    <path
       d="M103.9500 33.5500 L117.7500 33.5500 "
       id="path71" />
    <path
       d="M117.7500 19.7500 L103.9500 19.7500 "
       id="path72" />
    <path
       d="M63.7500 24.7500 L49.9500 24.7500 "
       id="path75" />
    <path
       d="M63.7500 24.7500 L63.7500 38.5500 "
       id="path76" />
    <path
       d="M49.9500 38.5500 L63.7500 38.5500 "
       id="path77" />
    <path
       d="M49.9500 38.5500 L49.9500 24.7500 "
       id="path81" />
    <path
       d="M67.9500 50.5500 L67.9500 36.7500 "
       id="path82" />
    <path
       d="M81.7500 36.7500 L81.7500 50.5500 "
       id="path86" />
    <path
       d="M81.7500 36.7500 L67.9500 36.7500 "
       id="path87" />
    <path
       d="M67.9500 50.5500 L81.7500 50.5500 "
       id="path89" />
    <path
       d="M81.7500 2.7500 L67.9500 2.7500 "
       id="path90" />
    <path
       d="M67.9500 16.5500 L81.7500 16.5500 "
       id="path92" />
    <path
       d="M81.7500 2.7500 L81.7500 16.5500 "
       id="path95" />
    <path
       d="M67.9500 16.5500 L67.9500 2.7500 "
       id="path97" />
    <path
       d="M85.9500 55.5500 L99.7500 55.5500 "
       id="path99" />
    <path
       d="M99.7500 41.7500 L99.7500 55.5500 "
       id="path101" />
    <path
       d="M85.9500 55.5500 L85.9500 41.7500 "
       id="path102" />
    <path
       d="M99.7500 41.7500 L85.9500 41.7500 "
       id="path105" />
    <path
       d="M31.9500 40.5500 L45.7500 40.5500 "
       id="path107" />
    <path
       d="M31.9500 40.5500 L31.9500 26.7500 "
       id="path110" />
    <path
       d="M45.7500 26.7500 L31.9500 26.7500 "
       id="path111" />
    <path
       d="M45.7500 26.7500 L45.7500 40.5500 "
       id="path113" />
    <path
       d="M15.5125 86.8196 L9.6804 74.3125 "
       id="path114" />
    <path
       d="M15.5125 86.8196 L28.0196 80.9875 "
       id="path115" />
    <path
       d="M22.1875 68.4804 L9.6804 74.3125 "
       id="path120" />
    <path
       d="M22.1875 68.4804 L28.0196 80.9875 "
       id="path121" />
    <path
       d="M103.9500 50.5500 L103.9500 36.7500 "
       id="path122" />
    <path
       d="M117.7500 36.7500 L103.9500 36.7500 "
       id="path124" />
    <path
       d="M117.7500 36.7500 L117.7500 50.5500 "
       id="path126" />
    <path
       d="M103.9500 50.5500 L117.7500 50.5500 "
       id="path129" />
    <path
       d="M45.7500 9.7500 L45.7500 23.5500 "
       id="path130" />
    <path
       d="M31.9500 23.5500 L31.9500 9.7500 "
       id="path133" />
    <path
       d="M31.9500 23.5500 L45.7500 23.5500 "
       id="path135" />
    <path
       d="M45.7500 9.7500 L31.9500 9.7500 "
       id="path136" />
    <path
       d="M135.7500 53.7500 L121.9500 53.7500 "
       id="path138" />
    <path
       d="M121.9500 67.5500 L121.9500 53.7500 "
       id="path141" />
    <path
       d="M121.9500 67.5500 L135.7500 67.5500 "
       id="path143" />
    <path
       d="M135.7500 53.7500 L135.7500 67.5500 "
       id="path144" />
    <path
       d="M81.7500 19.7500 L81.7500 33.5500 "
       id="path147" />
    <path
       d="M81.7500 19.7500 L67.9500 19.7500 "
       id="path148" />
    <path
       d="M67.9500 33.5500 L81.7500 33.5500 "
       id="path149" />
    <path
       d="M67.9500 33.5500 L67.9500 19.7500 "
       id="path151" />
    <path
       d="M121.9500 33.5500 L121.9500 19.7500 "
       id="path155" />
    <path
       d="M135.7500 19.7500 L135.7500 33.5500 "
       id="path156" />
    <path
       d="M135.7500 19.7500 L121.9500 19.7500 "
       id="path157" />
    <path
       d="M121.9500 33.5500 L135.7500 33.5500 "
       id="path159" />
    <path
       d="M34.2530 78.6433 L47.8433 76.2470 "
       id="path162" />
    <path
       d="M45.4470 62.6567 L31.8567 65.0530 "
       id="path164" />
    <path
       d="M34.2530 78.6433 L31.8567 65.0530 "
       id="path168" />
    <path
       d="M45.4470 62.6567 L47.8433 76.2470 "
       id="path169" />
    <g
       id="g169" />
    <g
       id="g170" />
    <g
       id="g171" />
    <g
       id="g172" />
    <g
       id="g173" />
    <g
       id="g174" />
    <g
       id="g175" />
    <g
       id="g176" />
    <g
       id="g177" />
    <g
       id="g178" />
    <g
       id="g179" />
    <g
       id="g180" />
    <g
       id="g181" />
    <g
       id="g182" />
    <g
       id="g183" />
    <g
       id="g184" />
    <g
       id="g185" />
    <g
       id="g186" />
    <g
       id="g187" />
    <g
       id="g188" />
    <g
       id="g189" />
    <g
       id="g190" />
    <g
       id="g191" />
    <g
       id="g192" />
    <g
       id="g193" />
    <g
       id="g194" />
    <g
       id="g195" />
    <g
       id="g196" />
    <g
       id="g197" />
    <g
       id="g198" />
    <g
       id="g199" />
    <g
       id="g200" />
    <g
       id="g201" />
    <g
       id="g202" />
    <g
       id="g203" />
    <g
       id="g204" />
    <g
       id="g205" />
    <g
       id="g206" />
    <g
       id="g207" />
  </g>
  <metadata
     id="metadata208">
    <rdf:RDF>
      <cc:Work
         rdf:about="">
        <dc:title>SVG Image created as keyboard_pcb-User_Eco2.svg date 2023/09/23 16:06:58 </dc:title>
      </cc:Work>
    </rdf:RDF>
  </metadata>
</svg>
