<?xml version="1.0" encoding="UTF-8" standalone="no"?>
<svg
   version="1.1"
   width="138.8872mm"
   height="89.9922mm"
   viewBox="0.0000 0.0000 138.8872 89.9922"
   id="svg208"
   sodipodi:docname="switches.svg"
   inkscape:version="1.3 (0e150ed, 2023-07-21)"
   xmlns:inkscape="http://www.inkscape.org/namespaces/inkscape"
   xmlns:sodipodi="http://sodipodi.sourceforge.net/DTD/sodipodi-0.dtd"
   xmlns="http://www.w3.org/2000/svg"
   xmlns:svg="http://www.w3.org/2000/svg"
   xmlns:rdf="http://www.w3.org/1999/02/22-rdf-syntax-ns#"
   xmlns:cc="http://creativecommons.org/ns#"
   xmlns:dc="http://purl.org/dc/elements/1.1/">
  <defs
     id="defs208" />
  <sodipodi:namedview
     id="namedview208"
     pagecolor="#505050"
     bordercolor="#eeeeee"
     borderopacity="1"
     inkscape:showpageshadow="0"
     inkscape:pageopacity="0"
     inkscape:pagecheckerboard="0"
     inkscape:deskcolor="#d1d1d1"
     inkscape:document-units="mm"
     inkscape:zoom="1.6622655"
     inkscape:cx="403.36516"
     inkscape:cy="170.24957"
     inkscape:window-width="1392"
     inkscape:window-height="1027"
     inkscape:window-x="419"
     inkscape:window-y="25"
     inkscape:window-maximized="0"
     inkscape:current-layer="g208" />
  <title
     id="title1">SVG Image created as keyboard_pcb-User_Eco2.svg date 2023/09/23 16:01:57 </title>
  <desc
     id="desc1">Image generated by PCBNEW </desc>
  <g
     style="fill:#000000; fill-opacity:1.0000;stroke:#000000; stroke-opacity:1.0000; stroke-linecap:round; stroke-linejoin:round;"
     transform="translate(0 0) scale(1 1)"
     id="g1" />
  <g
     style="fill:#000000; fill-opacity:0.0;  stroke:#000000; stroke-width:0.0000; stroke-opacity:1;  stroke-linecap:round; stroke-linejoin:round;"
     id="g2" />
  <g
     style="fill:#000000; fill-opacity:0.0;  stroke:#000000; stroke-width:0.1500; stroke-opacity:1;  stroke-linecap:round; stroke-linejoin:round;"
     id="g208">
    <path
       d="M106.9500 43.7500 L93.1500 43.7500 "
       id="path2" />
    <path
       d="M106.9500 43.7500 L106.9500 57.5500 "
       id="path5" />
    <path
       d="M93.1500 57.5500 L106.9500 57.5500 "
       id="path7" />
    <path
       d="M93.1500 57.5500 L93.1500 43.7500 "
       id="path9" />
    <path
       d="M88.9500 41.7500 L88.9500 55.5500 "
       id="path11" />
    <path
       d="M75.1500 55.5500 L88.9500 55.5500 "
       id="path12" />
    <path
       d="M88.9500 41.7500 L75.1500 41.7500 "
       id="path14" />
    <path
       d="M75.1500 55.5500 L75.1500 41.7500 "
       id="path17" />
    <path
       d="M34.9500 53.7500 L34.9500 67.5500 "
       id="path18" />
    <path
       d="M21.1500 67.5500 L34.9500 67.5500 "
       id="path21" />
    <path
       d="M21.1500 67.5500 L21.1500 53.7500 "
       id="path22" />
    <path
       d="M34.9500 53.7500 L21.1500 53.7500 "
       id="path24" />
    <path
       d="M39.1500 21.5500 L39.1500 7.7500 "
       id="path27" />
    <path
       d="M52.9500 7.7500 L52.9500 21.5500 "
       id="path31" />
    <path
       d="M39.1500 21.5500 L52.9500 21.5500 "
       id="path32" />
    <path
       d="M52.9500 7.7500 L39.1500 7.7500 "
       id="path33" />
    <path
       d="M3.1500 50.5500 L3.1500 36.7500 "
       id="path34" />
    <path
       d="M16.9500 36.7500 L3.1500 36.7500 "
       id="path35" />
    <path
       d="M16.9500 36.7500 L16.9500 50.5500 "
       id="path37" />
    <path
       d="M3.1500 50.5500 L16.9500 50.5500 "
       id="path38" />
    <path
       d="M88.9500 7.7500 L75.1500 7.7500 "
       id="path43" />
    <path
       d="M75.1500 21.5500 L88.9500 21.5500 "
       id="path44" />
    <path
       d="M75.1500 21.5500 L75.1500 7.7500 "
       id="path48" />
    <path
       d="M88.9500 7.7500 L88.9500 21.5500 "
       id="path49" />
    <path
       d="M39.1500 38.5500 L39.1500 24.7500 "
       id="path54" />
    <path
       d="M39.1500 38.5500 L52.9500 38.5500 "
       id="path55" />
    <path
       d="M52.9500 24.7500 L39.1500 24.7500 "
       id="path56" />
    <path
       d="M52.9500 24.7500 L52.9500 38.5500 "
       id="path57" />
    <path
       d="M83.3224 62.1749 L84.5251 75.9224 "
       id="path58" />
    <path
       d="M83.3224 62.1749 L69.5749 63.3776 "
       id="path59" />
    <path
       d="M70.7776 77.1251 L69.5749 63.3776 "
       id="path63" />
    <path
       d="M70.7776 77.1251 L84.5251 75.9224 "
       id="path64" />
    <path
       d="M34.9500 19.7500 L21.1500 19.7500 "
       id="path66" />
    <path
       d="M21.1500 33.5500 L21.1500 19.7500 "
       id="path69" />
    <path
       d="M34.9500 19.7500 L34.9500 33.5500 "
       id="path70" />
    <path
       d="M21.1500 33.5500 L34.9500 33.5500 "
       id="path73" />
    <path
       d="M75.1500 38.5500 L88.9500 38.5500 "
       id="path75" />
    <path
       d="M88.9500 24.7500 L88.9500 38.5500 "
       id="path76" />
    <path
       d="M75.1500 38.5500 L75.1500 24.7500 "
       id="path78" />
    <path
       d="M88.9500 24.7500 L75.1500 24.7500 "
       id="path79" />
    <path
       d="M70.9500 36.7500 L70.9500 50.5500 "
       id="path82" />
    <path
       d="M57.1500 50.5500 L70.9500 50.5500 "
       id="path83" />
    <path
       d="M70.9500 36.7500 L57.1500 36.7500 "
       id="path86" />
    <path
       d="M57.1500 50.5500 L57.1500 36.7500 "
       id="path89" />
    <path
       d="M57.1500 16.5500 L70.9500 16.5500 "
       id="path90" />
    <path
       d="M70.9500 2.7500 L70.9500 16.5500 "
       id="path91" />
    <path
       d="M57.1500 16.5500 L57.1500 2.7500 "
       id="path93" />
    <path
       d="M70.9500 2.7500 L57.1500 2.7500 "
       id="path97" />
    <path
       d="M39.1500 55.5500 L52.9500 55.5500 "
       id="path100" />
    <path
       d="M52.9500 41.7500 L39.1500 41.7500 "
       id="path101" />
    <path
       d="M52.9500 41.7500 L52.9500 55.5500 "
       id="path102" />
    <path
       d="M39.1500 55.5500 L39.1500 41.7500 "
       id="path103" />
    <path
       d="M93.1500 40.5500 L106.9500 40.5500 "
       id="path106" />
    <path
       d="M93.1500 40.5500 L93.1500 26.7500 "
       id="path107" />
    <path
       d="M106.9500 26.7500 L106.9500 40.5500 "
       id="path111" />
    <path
       d="M106.9500 26.7500 L93.1500 26.7500 "
       id="path112" />
    <path
       d="M110.8804 80.9875 L123.3875 86.8196 "
       id="path114" />
    <path
       d="M110.8804 80.9875 L116.7125 68.4804 "
       id="path116" />
    <path
       d="M129.2196 74.3125 L116.7125 68.4804 "
       id="path119" />
    <path
       d="M129.2196 74.3125 L123.3875 86.8196 "
       id="path120" />
    <path
       d="M21.1500 50.5500 L34.9500 50.5500 "
       id="path122" />
    <path
       d="M21.1500 50.5500 L21.1500 36.7500 "
       id="path124" />
    <path
       d="M34.9500 36.7500 L34.9500 50.5500 "
       id="path125" />
    <path
       d="M34.9500 36.7500 L21.1500 36.7500 "
       id="path129" />
    <path
       d="M93.1500 23.5500 L93.1500 9.7500 "
       id="path130" />
    <path
       d="M106.9500 9.7500 L106.9500 23.5500 "
       id="path131" />
    <path
       d="M93.1500 23.5500 L106.9500 23.5500 "
       id="path132" />
    <path
       d="M106.9500 9.7500 L93.1500 9.7500 "
       id="path136" />
    <path
       d="M16.9500 53.7500 L16.9500 67.5500 "
       id="path138" />
    <path
       d="M3.1500 67.5500 L16.9500 67.5500 "
       id="path139" />
    <path
       d="M16.9500 53.7500 L3.1500 53.7500 "
       id="path143" />
    <path
       d="M3.1500 67.5500 L3.1500 53.7500 "
       id="path145" />
    <path
       d="M70.9500 19.7500 L70.9500 33.5500 "
       id="path146" />
    <path
       d="M70.9500 19.7500 L57.1500 19.7500 "
       id="path147" />
    <path
       d="M57.1500 33.5500 L57.1500 19.7500 "
       id="path148" />
    <path
       d="M57.1500 33.5500 L70.9500 33.5500 "
       id="path149" />
    <path
       d="M3.1500 33.5500 L16.9500 33.5500 "
       id="path154" />
    <path
       d="M16.9500 19.7500 L3.1500 19.7500 "
       id="path155" />
    <path
       d="M16.9500 19.7500 L16.9500 33.5500 "
       id="path157" />
    <path
       d="M3.1500 33.5500 L3.1500 19.7500 "
       id="path161" />
    <path
       d="M107.0433 65.0530 L93.4530 62.6567 "
       id="path162" />
    <path
       d="M91.0567 76.2470 L104.6470 78.6433 "
       id="path163" />
    <path
       d="M91.0567 76.2470 L93.4530 62.6567 "
       id="path167" />
    <path
       d="M107.0433 65.0530 L104.6470 78.6433 "
       id="path168" />
    <g
       id="g169" />
    <g
       id="g170" />
    <g
       id="g171" />
    <g
       id="g172" />
    <g
       id="g173" />
    <g
       id="g174" />
    <g
       id="g175" />
    <g
       id="g176" />
    <g
       id="g177" />
    <g
       id="g178" />
    <g
       id="g179" />
    <g
       id="g180" />
    <g
       id="g181" />
    <g
       id="g182" />
    <g
       id="g183" />
    <g
       id="g184" />
    <g
       id="g185" />
    <g
       id="g186" />
    <g
       id="g187" />
    <g
       id="g188" />
    <g
       id="g189" />
    <g
       id="g190" />
    <g
       id="g191" />
    <g
       id="g192" />
    <g
       id="g193" />
    <g
       id="g194" />
    <g
       id="g195" />
    <g
       id="g196" />
    <g
       id="g197" />
    <g
       id="g198" />
    <g
       id="g199" />
    <g
       id="g200" />
    <g
       id="g201" />
    <g
       id="g202" />
    <g
       id="g203" />
    <g
       id="g204" />
    <g
       id="g205" />
    <g
       id="g206" />
    <g
       id="g207" />
  </g>
  <metadata
     id="metadata208">
    <rdf:RDF>
      <cc:Work
         rdf:about="">
        <dc:title>SVG Image created as keyboard_pcb-User_Eco2.svg date 2023/09/23 16:01:57 </dc:title>
      </cc:Work>
    </rdf:RDF>
  </metadata>
</svg>
